<svg xmlns="http://www.w3.org/2000/svg" width="138" height="137" fill="none" viewBox="0 0 138 137"><circle cx="69" cy="68.253" r="68.253" fill="#3967AD"/><path fill="#fff" d="M105.922 41.175C105.922 41.175 107.093 37.7061 104.578 35.2779C102.28 33.0232 99.2883 34.2373 99.2883 34.2373C96.6433 35.5381 74.3127 49.2834 66.0308 58.3891C62.3018 62.5517 57.0986 74.8227 61.3045 79.2888C65.2937 83.5381 78.4753 78.5517 82.0742 74.9528C91.0065 66.0205 104.665 43.8633 105.922 41.175ZM32.5132 102.226C42.7896 95.4622 38.8438 87.4406 46.5186 82.1072C50.5511 79.2888 56.1446 79.4189 59.8736 83.3647C62.6054 86.2698 63.3425 94.5083 59.1799 98.3674C52.3723 104.655 41.8357 105.088 32.5132 102.226Z"/></svg>