<svg xmlns="http://www.w3.org/2000/svg" width="138" height="137" fill="none" viewBox="0 0 138 137"><circle cx="69" cy="68.5" r="68.253" fill="#3967AD"/><path fill="#fff" d="M62.8001 105.7C62.8001 105.7 56.6001 105.7 56.6001 99.4998C56.6001 93.2999 62.8001 74.7 87.5999 74.7C112.4 74.7 118.6 93.2999 118.6 99.4998C118.6 105.7 112.4 105.7 112.4 105.7H62.8001ZM87.5999 68.5C92.5329 68.5 97.2639 66.5404 100.752 63.0522C104.24 59.5641 106.2 54.8331 106.2 49.9001C106.2 44.9671 104.24 40.2362 100.752 36.748C97.2639 33.2599 92.5329 31.3002 87.5999 31.3002C82.6669 31.3002 77.936 33.2599 74.4478 36.748C70.9596 40.2362 69 44.9671 69 49.9001C69 54.8331 70.9596 59.5641 74.4478 63.0522C77.936 66.5404 82.6669 68.5 87.5999 68.5Z"/><path fill="#fff" fill-rule="evenodd" d="M51.7394 105.699C50.8203 103.764 50.3619 101.642 50.4002 99.4995C50.4002 91.0986 54.6162 82.4496 62.4033 76.4357C58.5165 75.238 54.4671 74.6524 50.4002 74.6997C25.6004 74.6997 19.4004 93.2996 19.4004 99.4995C19.4004 105.699 25.6004 105.699 25.6004 105.699H51.7394Z" clip-rule="evenodd"/><path fill="#fff" d="M47.3002 68.5C51.411 68.5 55.3535 66.867 58.2603 63.9602C61.1671 61.0534 62.8001 57.1109 62.8001 53.0001C62.8001 48.8893 61.1671 44.9468 58.2603 42.04C55.3535 39.1332 51.411 37.5002 47.3002 37.5002C43.1894 37.5002 39.2469 39.1332 36.3401 42.04C33.4333 44.9468 31.8003 48.8893 31.8003 53.0001C31.8003 57.1109 33.4333 61.0534 36.3401 63.9602C39.2469 66.867 43.1894 68.5 47.3002 68.5Z"/></svg>