<svg width="138" height="137" viewBox="0 0 138 137" fill="none" xmlns="http://www.w3.org/2000/svg">
<circle cx="69.0001" cy="68.5" r="68.2526" fill="#3967AD"/>
<path d="M94.1178 93.6178L81.5979 81.0756L94.1178 93.6178ZM88.536 64.3137C88.536 70.6052 86.0367 76.6391 81.5879 81.0879C77.1391 85.5367 71.1052 88.036 64.8137 88.036C58.5221 88.036 52.4882 85.5367 48.0394 81.0879C43.5906 76.6391 41.0913 70.6052 41.0913 64.3137C41.0913 58.0221 43.5906 51.9882 48.0394 47.5394C52.4882 43.0906 58.5221 40.5913 64.8137 40.5913C71.1052 40.5913 77.1391 43.0906 81.5879 47.5394C86.0367 51.9882 88.536 58.0221 88.536 64.3137V64.3137Z" stroke="white" stroke-width="4" stroke-linecap="round"/>
</svg>
